<mxfile host="Electron" agent="Mozilla/5.0 (Windows NT 10.0; Win64; x64) AppleWebKit/537.36 (KHTML, like Gecko) draw.io/26.0.16 Chrome/132.0.6834.196 Electron/34.2.0 Safari/537.36" version="26.0.16">
  <diagram name="Страница — 1" id="Ul0jLYfJJ2sCAdwJJzqe">
    <mxGraphModel dx="1662" dy="621" grid="1" gridSize="10" guides="1" tooltips="1" connect="1" arrows="1" fold="1" page="0" pageScale="1" pageWidth="827" pageHeight="1169" math="0" shadow="0">
      <root>
        <mxCell id="0" />
        <mxCell id="1" parent="0" />
        <mxCell id="XT16FpTeJLfRBqT8VTv8-22" value="" style="edgeStyle=orthogonalEdgeStyle;rounded=0;orthogonalLoop=1;jettySize=auto;html=1;labelBackgroundColor=none;fontColor=#000000;fontStyle=0;fontFamily=Helvetica;fontSize=11;" edge="1" parent="1" source="XT16FpTeJLfRBqT8VTv8-1" target="XT16FpTeJLfRBqT8VTv8-2">
          <mxGeometry relative="1" as="geometry" />
        </mxCell>
        <mxCell id="XT16FpTeJLfRBqT8VTv8-23" style="edgeStyle=orthogonalEdgeStyle;rounded=0;orthogonalLoop=1;jettySize=auto;html=1;entryX=0.5;entryY=0;entryDx=0;entryDy=0;exitX=0.5;exitY=1;exitDx=0;exitDy=0;labelBackgroundColor=none;fontColor=#000000;fontStyle=0;fontFamily=Helvetica;fontSize=11;" edge="1" parent="1" source="XT16FpTeJLfRBqT8VTv8-1">
          <mxGeometry relative="1" as="geometry">
            <mxPoint x="320" y="110" as="sourcePoint" />
            <mxPoint x="220" y="210" as="targetPoint" />
            <Array as="points">
              <mxPoint x="380" y="160" />
              <mxPoint x="220" y="160" />
            </Array>
          </mxGeometry>
        </mxCell>
        <mxCell id="XT16FpTeJLfRBqT8VTv8-24" style="edgeStyle=orthogonalEdgeStyle;rounded=0;orthogonalLoop=1;jettySize=auto;html=1;labelBackgroundColor=none;fontColor=#000000;fontStyle=0;fontFamily=Helvetica;fontSize=11;" edge="1" parent="1" source="XT16FpTeJLfRBqT8VTv8-1" target="XT16FpTeJLfRBqT8VTv8-4">
          <mxGeometry relative="1" as="geometry">
            <Array as="points">
              <mxPoint x="380" y="160" />
              <mxPoint x="60" y="160" />
            </Array>
          </mxGeometry>
        </mxCell>
        <mxCell id="XT16FpTeJLfRBqT8VTv8-25" style="edgeStyle=orthogonalEdgeStyle;rounded=0;orthogonalLoop=1;jettySize=auto;html=1;entryX=0.5;entryY=0;entryDx=0;entryDy=0;labelBackgroundColor=none;fontColor=#000000;fontStyle=0;fontFamily=Helvetica;fontSize=11;" edge="1" parent="1" source="XT16FpTeJLfRBqT8VTv8-1" target="XT16FpTeJLfRBqT8VTv8-6">
          <mxGeometry relative="1" as="geometry">
            <Array as="points">
              <mxPoint x="380" y="160" />
              <mxPoint x="540" y="160" />
            </Array>
          </mxGeometry>
        </mxCell>
        <mxCell id="XT16FpTeJLfRBqT8VTv8-26" style="edgeStyle=orthogonalEdgeStyle;rounded=0;orthogonalLoop=1;jettySize=auto;html=1;entryX=0.5;entryY=0;entryDx=0;entryDy=0;labelBackgroundColor=none;fontColor=#000000;fontStyle=0;fontFamily=Helvetica;fontSize=11;" edge="1" parent="1" source="XT16FpTeJLfRBqT8VTv8-1" target="XT16FpTeJLfRBqT8VTv8-5">
          <mxGeometry relative="1" as="geometry">
            <Array as="points">
              <mxPoint x="380" y="160" />
              <mxPoint x="700" y="160" />
            </Array>
          </mxGeometry>
        </mxCell>
        <mxCell id="XT16FpTeJLfRBqT8VTv8-1" value="Гениральный директор" style="rounded=0;whiteSpace=wrap;html=1;labelBackgroundColor=none;fontColor=#000000;fontStyle=0;fontFamily=Helvetica;fontSize=11;" vertex="1" parent="1">
          <mxGeometry x="320" y="80" width="120" height="40" as="geometry" />
        </mxCell>
        <mxCell id="XT16FpTeJLfRBqT8VTv8-2" value="Отдел технической поддержки" style="rounded=0;whiteSpace=wrap;html=1;labelBackgroundColor=none;fontColor=#000000;fontStyle=0;fontFamily=Helvetica;fontSize=11;" vertex="1" parent="1">
          <mxGeometry x="320" y="200" width="120" height="40" as="geometry" />
        </mxCell>
        <mxCell id="XT16FpTeJLfRBqT8VTv8-3" value="Гениральный энергосетей" style="rounded=0;whiteSpace=wrap;html=1;labelBackgroundColor=none;fontColor=#000000;fontStyle=0;fontFamily=Helvetica;fontSize=11;" vertex="1" parent="1">
          <mxGeometry x="160" y="200" width="120" height="40" as="geometry" />
        </mxCell>
        <mxCell id="XT16FpTeJLfRBqT8VTv8-27" style="edgeStyle=orthogonalEdgeStyle;rounded=0;orthogonalLoop=1;jettySize=auto;html=1;entryX=0;entryY=0.5;entryDx=0;entryDy=0;labelBackgroundColor=none;fontColor=#000000;fontStyle=0;fontFamily=Helvetica;fontSize=11;" edge="1" parent="1" source="XT16FpTeJLfRBqT8VTv8-4" target="XT16FpTeJLfRBqT8VTv8-7">
          <mxGeometry relative="1" as="geometry">
            <Array as="points">
              <mxPoint x="-10" y="220" />
              <mxPoint x="-10" y="300" />
            </Array>
          </mxGeometry>
        </mxCell>
        <mxCell id="XT16FpTeJLfRBqT8VTv8-28" style="edgeStyle=orthogonalEdgeStyle;rounded=0;orthogonalLoop=1;jettySize=auto;html=1;entryX=0;entryY=0.5;entryDx=0;entryDy=0;labelBackgroundColor=none;fontColor=#000000;fontStyle=0;fontFamily=Helvetica;fontSize=11;" edge="1" parent="1" source="XT16FpTeJLfRBqT8VTv8-4" target="XT16FpTeJLfRBqT8VTv8-8">
          <mxGeometry relative="1" as="geometry">
            <Array as="points">
              <mxPoint x="-10" y="220" />
              <mxPoint x="-10" y="380" />
            </Array>
          </mxGeometry>
        </mxCell>
        <mxCell id="XT16FpTeJLfRBqT8VTv8-29" style="edgeStyle=orthogonalEdgeStyle;rounded=0;orthogonalLoop=1;jettySize=auto;html=1;entryX=0;entryY=0.5;entryDx=0;entryDy=0;labelBackgroundColor=none;fontColor=#000000;fontStyle=0;fontFamily=Helvetica;fontSize=11;" edge="1" parent="1" source="XT16FpTeJLfRBqT8VTv8-4" target="XT16FpTeJLfRBqT8VTv8-9">
          <mxGeometry relative="1" as="geometry">
            <Array as="points">
              <mxPoint x="-10" y="220" />
              <mxPoint x="-10" y="460" />
            </Array>
          </mxGeometry>
        </mxCell>
        <mxCell id="XT16FpTeJLfRBqT8VTv8-4" value="Отдел генерации" style="rounded=0;whiteSpace=wrap;html=1;fontSize=11;labelBackgroundColor=none;fontColor=#000000;fontStyle=0;fontFamily=Helvetica;" vertex="1" parent="1">
          <mxGeometry y="200" width="120" height="40" as="geometry" />
        </mxCell>
        <mxCell id="XT16FpTeJLfRBqT8VTv8-5" value="Отдел комерции и сбыта" style="rounded=0;whiteSpace=wrap;html=1;labelBackgroundColor=none;fontColor=#000000;fontStyle=0;fontFamily=Helvetica;fontSize=11;" vertex="1" parent="1">
          <mxGeometry x="640" y="200" width="120" height="40" as="geometry" />
        </mxCell>
        <mxCell id="XT16FpTeJLfRBqT8VTv8-6" value="Бухгалтерия" style="rounded=0;whiteSpace=wrap;html=1;labelBackgroundColor=none;fontColor=#000000;fontStyle=0;fontFamily=Helvetica;fontSize=11;" vertex="1" parent="1">
          <mxGeometry x="480" y="200" width="120" height="40" as="geometry" />
        </mxCell>
        <mxCell id="XT16FpTeJLfRBqT8VTv8-7" value="&lt;span style=&quot;text-align: left;&quot;&gt;Инженер-энергетик&lt;/span&gt;" style="rounded=0;whiteSpace=wrap;html=1;fontSize=11;labelBackgroundColor=none;fontColor=#000000;fontStyle=0;fontFamily=Helvetica;" vertex="1" parent="1">
          <mxGeometry y="280" width="120" height="40" as="geometry" />
        </mxCell>
        <mxCell id="XT16FpTeJLfRBqT8VTv8-8" value="&lt;span style=&quot;text-align: left;&quot;&gt;Мастер смены станции&lt;/span&gt;" style="rounded=0;whiteSpace=wrap;html=1;labelBackgroundColor=none;fontColor=#000000;fontStyle=0;fontFamily=Helvetica;fontSize=11;" vertex="1" parent="1">
          <mxGeometry y="360" width="120" height="40" as="geometry" />
        </mxCell>
        <mxCell id="XT16FpTeJLfRBqT8VTv8-9" value="&lt;span style=&quot;text-align: left;&quot;&gt;Техник-эколог&lt;/span&gt;" style="rounded=0;whiteSpace=wrap;html=1;labelBackgroundColor=none;fontColor=#000000;fontStyle=0;fontFamily=Helvetica;fontSize=11;" vertex="1" parent="1">
          <mxGeometry y="440" width="120" height="40" as="geometry" />
        </mxCell>
        <mxCell id="XT16FpTeJLfRBqT8VTv8-10" value="&lt;span style=&quot;text-align: left;&quot;&gt;Главный диспетчер&lt;/span&gt;" style="rounded=0;whiteSpace=wrap;html=1;fontSize=11;labelBackgroundColor=none;fontColor=#000000;fontStyle=0;fontFamily=Helvetica;" vertex="1" parent="1">
          <mxGeometry x="160" y="280" width="120" height="40" as="geometry" />
        </mxCell>
        <mxCell id="XT16FpTeJLfRBqT8VTv8-11" value="&lt;span style=&quot;text-align: left;&quot;&gt;Инженер ЛЭП&lt;/span&gt;&lt;span style=&quot;text-align: left;&quot;&gt;&amp;nbsp;&lt;/span&gt;" style="rounded=0;whiteSpace=wrap;html=1;labelBackgroundColor=none;fontColor=#000000;fontStyle=0;fontFamily=Helvetica;fontSize=11;" vertex="1" parent="1">
          <mxGeometry x="160" y="360" width="120" height="40" as="geometry" />
        </mxCell>
        <mxCell id="XT16FpTeJLfRBqT8VTv8-12" value="&lt;span style=&quot;text-align: left;&quot;&gt;Специалист по релейной защите&lt;/span&gt;" style="rounded=0;whiteSpace=wrap;html=1;labelBackgroundColor=none;fontColor=#000000;fontStyle=0;fontFamily=Helvetica;fontSize=11;" vertex="1" parent="1">
          <mxGeometry x="160" y="440" width="120" height="40" as="geometry" />
        </mxCell>
        <mxCell id="XT16FpTeJLfRBqT8VTv8-13" value="&lt;span style=&quot;text-align: left;&quot;&gt;Системный администратор&lt;/span&gt;" style="rounded=0;whiteSpace=wrap;html=1;fontSize=11;labelBackgroundColor=none;fontColor=#000000;fontStyle=0;fontFamily=Helvetica;" vertex="1" parent="1">
          <mxGeometry x="320" y="280" width="120" height="40" as="geometry" />
        </mxCell>
        <mxCell id="XT16FpTeJLfRBqT8VTv8-14" value="&lt;span style=&quot;text-align: left;&quot;&gt;Механик-наладчик&lt;/span&gt;&lt;span style=&quot;text-align: left;&quot;&gt;&amp;nbsp;&lt;/span&gt;" style="rounded=0;whiteSpace=wrap;html=1;labelBackgroundColor=none;fontColor=#000000;fontStyle=0;fontFamily=Helvetica;fontSize=11;" vertex="1" parent="1">
          <mxGeometry x="320" y="360" width="120" height="40" as="geometry" />
        </mxCell>
        <mxCell id="XT16FpTeJLfRBqT8VTv8-15" value="&lt;span style=&quot;text-align: left;&quot;&gt;Лаборант химводоочистки&lt;/span&gt;&lt;span style=&quot;text-align: left;&quot;&gt;&amp;nbsp;&lt;/span&gt;" style="rounded=0;whiteSpace=wrap;html=1;labelBackgroundColor=none;fontColor=#000000;fontStyle=0;fontFamily=Helvetica;fontSize=11;" vertex="1" parent="1">
          <mxGeometry x="320" y="440" width="120" height="40" as="geometry" />
        </mxCell>
        <mxCell id="XT16FpTeJLfRBqT8VTv8-16" value="&lt;span style=&quot;text-align: left;&quot;&gt;Главный бухгалтер&lt;/span&gt;" style="rounded=0;whiteSpace=wrap;html=1;fontSize=11;labelBackgroundColor=none;fontColor=#000000;fontStyle=0;fontFamily=Helvetica;" vertex="1" parent="1">
          <mxGeometry x="480" y="280" width="120" height="40" as="geometry" />
        </mxCell>
        <mxCell id="XT16FpTeJLfRBqT8VTv8-17" value="&lt;span style=&quot;text-align: left;&quot;&gt;Экономист по тарифам&lt;/span&gt;" style="rounded=0;whiteSpace=wrap;html=1;labelBackgroundColor=none;fontColor=#000000;fontStyle=0;fontFamily=Helvetica;fontSize=11;" vertex="1" parent="1">
          <mxGeometry x="480" y="360" width="120" height="40" as="geometry" />
        </mxCell>
        <mxCell id="XT16FpTeJLfRBqT8VTv8-19" value="&lt;span style=&quot;text-align: left;&quot;&gt;Менеджер по оптовым продажам&lt;/span&gt;" style="rounded=0;whiteSpace=wrap;html=1;fontSize=11;labelBackgroundColor=none;fontColor=#000000;fontStyle=0;fontFamily=Helvetica;" vertex="1" parent="1">
          <mxGeometry x="640" y="280" width="120" height="40" as="geometry" />
        </mxCell>
        <mxCell id="XT16FpTeJLfRBqT8VTv8-20" value="&lt;span style=&quot;text-align: left;&quot;&gt;Аналитик рынка&lt;/span&gt;&lt;span style=&quot;text-align: left;&quot;&gt;&amp;nbsp;&lt;/span&gt;" style="rounded=0;whiteSpace=wrap;html=1;labelBackgroundColor=none;fontColor=#000000;fontStyle=0;fontFamily=Helvetica;fontSize=11;" vertex="1" parent="1">
          <mxGeometry x="640" y="360" width="120" height="40" as="geometry" />
        </mxCell>
        <mxCell id="XT16FpTeJLfRBqT8VTv8-21" value="&lt;span style=&quot;text-align: left;&quot;&gt;Специалист по работе с клиентами&lt;/span&gt;" style="rounded=0;whiteSpace=wrap;html=1;labelBackgroundColor=none;fontColor=#000000;fontStyle=0;fontFamily=Helvetica;fontSize=11;" vertex="1" parent="1">
          <mxGeometry x="640" y="440" width="120" height="40" as="geometry" />
        </mxCell>
        <mxCell id="XT16FpTeJLfRBqT8VTv8-30" style="edgeStyle=orthogonalEdgeStyle;rounded=0;orthogonalLoop=1;jettySize=auto;html=1;entryX=0;entryY=0.5;entryDx=0;entryDy=0;labelBackgroundColor=none;fontColor=#000000;fontStyle=0;fontFamily=Helvetica;fontSize=11;" edge="1" parent="1">
          <mxGeometry relative="1" as="geometry">
            <mxPoint x="160" y="220" as="sourcePoint" />
            <mxPoint x="160" y="300" as="targetPoint" />
            <Array as="points">
              <mxPoint x="150" y="220" />
              <mxPoint x="150" y="300" />
            </Array>
          </mxGeometry>
        </mxCell>
        <mxCell id="XT16FpTeJLfRBqT8VTv8-31" style="edgeStyle=orthogonalEdgeStyle;rounded=0;orthogonalLoop=1;jettySize=auto;html=1;entryX=0;entryY=0.5;entryDx=0;entryDy=0;labelBackgroundColor=none;fontColor=#000000;fontStyle=0;fontFamily=Helvetica;fontSize=11;" edge="1" parent="1">
          <mxGeometry relative="1" as="geometry">
            <mxPoint x="160" y="220" as="sourcePoint" />
            <mxPoint x="160" y="380" as="targetPoint" />
            <Array as="points">
              <mxPoint x="150" y="220" />
              <mxPoint x="150" y="380" />
            </Array>
          </mxGeometry>
        </mxCell>
        <mxCell id="XT16FpTeJLfRBqT8VTv8-32" style="edgeStyle=orthogonalEdgeStyle;rounded=0;orthogonalLoop=1;jettySize=auto;html=1;entryX=0;entryY=0.5;entryDx=0;entryDy=0;labelBackgroundColor=none;fontColor=#000000;fontStyle=0;fontFamily=Helvetica;fontSize=11;" edge="1" parent="1">
          <mxGeometry relative="1" as="geometry">
            <mxPoint x="160" y="220" as="sourcePoint" />
            <mxPoint x="160" y="460" as="targetPoint" />
            <Array as="points">
              <mxPoint x="150" y="220" />
              <mxPoint x="150" y="460" />
            </Array>
          </mxGeometry>
        </mxCell>
        <mxCell id="XT16FpTeJLfRBqT8VTv8-36" style="edgeStyle=orthogonalEdgeStyle;rounded=0;orthogonalLoop=1;jettySize=auto;html=1;entryX=0;entryY=0.5;entryDx=0;entryDy=0;labelBackgroundColor=none;fontColor=#000000;fontStyle=0;fontFamily=Helvetica;fontSize=11;" edge="1" parent="1">
          <mxGeometry relative="1" as="geometry">
            <mxPoint x="320" y="220" as="sourcePoint" />
            <mxPoint x="320" y="300" as="targetPoint" />
            <Array as="points">
              <mxPoint x="310" y="220" />
              <mxPoint x="310" y="300" />
            </Array>
          </mxGeometry>
        </mxCell>
        <mxCell id="XT16FpTeJLfRBqT8VTv8-37" style="edgeStyle=orthogonalEdgeStyle;rounded=0;orthogonalLoop=1;jettySize=auto;html=1;entryX=0;entryY=0.5;entryDx=0;entryDy=0;labelBackgroundColor=none;fontColor=#000000;fontStyle=0;fontFamily=Helvetica;fontSize=11;" edge="1" parent="1">
          <mxGeometry relative="1" as="geometry">
            <mxPoint x="320" y="220" as="sourcePoint" />
            <mxPoint x="320" y="380" as="targetPoint" />
            <Array as="points">
              <mxPoint x="310" y="220" />
              <mxPoint x="310" y="380" />
            </Array>
          </mxGeometry>
        </mxCell>
        <mxCell id="XT16FpTeJLfRBqT8VTv8-38" style="edgeStyle=orthogonalEdgeStyle;rounded=0;orthogonalLoop=1;jettySize=auto;html=1;entryX=0;entryY=0.5;entryDx=0;entryDy=0;labelBackgroundColor=none;fontColor=#000000;fontStyle=0;fontFamily=Helvetica;fontSize=11;" edge="1" parent="1">
          <mxGeometry relative="1" as="geometry">
            <mxPoint x="320" y="220" as="sourcePoint" />
            <mxPoint x="320" y="460" as="targetPoint" />
            <Array as="points">
              <mxPoint x="310" y="220" />
              <mxPoint x="310" y="460" />
            </Array>
          </mxGeometry>
        </mxCell>
        <mxCell id="XT16FpTeJLfRBqT8VTv8-39" style="edgeStyle=orthogonalEdgeStyle;rounded=0;orthogonalLoop=1;jettySize=auto;html=1;entryX=0;entryY=0.5;entryDx=0;entryDy=0;labelBackgroundColor=none;fontColor=#000000;fontStyle=0;fontFamily=Helvetica;fontSize=11;" edge="1" parent="1">
          <mxGeometry relative="1" as="geometry">
            <mxPoint x="480" y="220" as="sourcePoint" />
            <mxPoint x="480" y="300" as="targetPoint" />
            <Array as="points">
              <mxPoint x="470" y="220" />
              <mxPoint x="470" y="300" />
            </Array>
          </mxGeometry>
        </mxCell>
        <mxCell id="XT16FpTeJLfRBqT8VTv8-40" style="edgeStyle=orthogonalEdgeStyle;rounded=0;orthogonalLoop=1;jettySize=auto;html=1;entryX=0;entryY=0.5;entryDx=0;entryDy=0;labelBackgroundColor=none;fontColor=#000000;fontStyle=0;fontFamily=Helvetica;fontSize=11;" edge="1" parent="1">
          <mxGeometry relative="1" as="geometry">
            <mxPoint x="480" y="220" as="sourcePoint" />
            <mxPoint x="480" y="380" as="targetPoint" />
            <Array as="points">
              <mxPoint x="470" y="220" />
              <mxPoint x="470" y="380" />
            </Array>
          </mxGeometry>
        </mxCell>
        <mxCell id="XT16FpTeJLfRBqT8VTv8-42" style="edgeStyle=orthogonalEdgeStyle;rounded=0;orthogonalLoop=1;jettySize=auto;html=1;entryX=0;entryY=0.5;entryDx=0;entryDy=0;labelBackgroundColor=none;fontColor=#000000;fontStyle=0;fontFamily=Helvetica;fontSize=11;" edge="1" parent="1">
          <mxGeometry relative="1" as="geometry">
            <mxPoint x="640" y="220" as="sourcePoint" />
            <mxPoint x="640" y="300" as="targetPoint" />
            <Array as="points">
              <mxPoint x="630" y="220" />
              <mxPoint x="630" y="300" />
            </Array>
          </mxGeometry>
        </mxCell>
        <mxCell id="XT16FpTeJLfRBqT8VTv8-43" style="edgeStyle=orthogonalEdgeStyle;rounded=0;orthogonalLoop=1;jettySize=auto;html=1;entryX=0;entryY=0.5;entryDx=0;entryDy=0;labelBackgroundColor=none;fontColor=#000000;fontStyle=0;fontFamily=Helvetica;fontSize=11;" edge="1" parent="1">
          <mxGeometry relative="1" as="geometry">
            <mxPoint x="640" y="220" as="sourcePoint" />
            <mxPoint x="640" y="380" as="targetPoint" />
            <Array as="points">
              <mxPoint x="630" y="220" />
              <mxPoint x="630" y="380" />
            </Array>
          </mxGeometry>
        </mxCell>
        <mxCell id="XT16FpTeJLfRBqT8VTv8-44" style="edgeStyle=orthogonalEdgeStyle;rounded=0;orthogonalLoop=1;jettySize=auto;html=1;entryX=0;entryY=0.5;entryDx=0;entryDy=0;labelBackgroundColor=none;fontColor=#000000;fontStyle=0;fontFamily=Helvetica;fontSize=11;" edge="1" parent="1">
          <mxGeometry relative="1" as="geometry">
            <mxPoint x="640" y="220" as="sourcePoint" />
            <mxPoint x="640" y="460" as="targetPoint" />
            <Array as="points">
              <mxPoint x="630" y="220" />
              <mxPoint x="630" y="460" />
            </Array>
          </mxGeometry>
        </mxCell>
      </root>
    </mxGraphModel>
  </diagram>
</mxfile>
